<?xml version="1.0" encoding="UTF-8" standalone="no"?>
<svg
   xmlns:dc="http://purl.org/dc/elements/1.1/"
   xmlns:cc="http://creativecommons.org/ns#"
   xmlns:rdf="http://www.w3.org/1999/02/22-rdf-syntax-ns#"
   xmlns:svg="http://www.w3.org/2000/svg"
   xmlns="http://www.w3.org/2000/svg"
   viewBox="0 0 304.7969 304.5653"
   height="304.56531"
   width="304.79691"
   id="svg815"
   version="1.1">
  <metadata
     id="metadata821">
    <rdf:RDF>
      <cc:Work
         rdf:about="">
        <dc:format>image/svg+xml</dc:format>
        <dc:type
           rdf:resource="http://purl.org/dc/dcmitype/StillImage" />
        <dc:title></dc:title>
      </cc:Work>
    </rdf:RDF>
  </metadata>
  <defs
     id="defs819" />
  <g
     transform="translate(-192.01517,-7.9825421)"
     style="display:inline"
     id="layer2">
    <path
       id="path825-4"
       d="m 344.01127,7.9863 c -107.5567,-10e-6 -98.9324,-0.22665 -108.5137,2.8418 -8.0886,2.59048 -15.3385,6.83292 -22.2558,13.02343 -8.4996,7.60652 -14.6427,16.80643 -17.9824,26.9336 -3.0836,9.34987 -3.3494,13.96779 -3.1348,54.26757 0.1441,27.04926 0.2712,32.70193 0.8066,35.73243 2.3743,13.4373 8.1818,24.56409 17.7911,34.09179 8.2029,8.1332 17.7344,13.67136 28.08,16.31446 4.0753,1.04086 5.827,1.52424 18.8262,1.76757 l 0,-8.08789 0,-57.48437 -0.0176,0 0,-26.80078 0,-26.80078 0.0176,0 0,-0.09766 173.5703,0 0,24.89844 32.4121,0 33.2012,0 -0.008,-16.90039 c -0.007,-17.2875 -0.19623,-20.16275 -1.76953,-26.80078 -4.0703,-17.17335 -17.90866,-33.4475 -35.42186,-41.65625 -3.9283,-1.84125 -11.4061,-4.06695 -15.8555,-4.72071 -2.8366,-0.41677 -22.7955,-0.52148 -99.7422,-0.52148 l -0.002,0 z m -29.53253,119.67542 c 0.0421,27.96935 0.0528,37.35452 0.1074,65.40486 l 61.26917,0.42562 0.42563,-65.83048 z m 116.72003,-0.0328 0,118.98828 -116.61263,0 0.2128,65.84375 c 13.8359,0.0218 12.41403,0.0485 29.22793,0.0605 103.412,0.0738 99.2029,0.16459 107.5079,-2.32031 7.6042,-2.2753 14.5549,-5.84405 20.6425,-10.59765 11.81948,-9.2292 20.21052,-22.04747 23.17972,-35.41407 1.4372,-6.47 1.51388,-9.14369 1.35547,-46.40039 -0.1713,-40.2926 -0.0807,-38.74885 -2.75,-47.09765 -6.23272,-19.4937 -23.98179,-36.27892 -43.72849,-41.35352 -3.8856,-0.99877 -6.0871,-1.47677 -19.0352,-1.70898 z m -239.1836,94.15625 0,13.5 c 0.01,20.4271 0.5833,26.27279 3.4453,34.90039 3.5732,10.7716 10.8755,20.99323 20.6895,28.95703 9.0962,7.3813 20.642,12.11981 32.0625,13.16211 l 0,0.004 c 0.2344,0.0214 3.8206,0.0423 9.416,0.0645 l 0,-65.75782 0,-0.0293 -0.0117,0 0,-12.40039 0,-12.40039 -32.8008,0 z"
       style="display:inline;fill:#010000;fill-opacity:1;stroke-width:0.40000001" />
  </g>
  <g
     transform="translate(-192.01517,-7.9825421)"
     style="display:none"
     id="layer8" />
  <g
     transform="translate(-192.01517,-7.9825421)"
     style="display:none"
     id="layer4">
    <path
       id="path854-5"
       d="m -898.52798,679.75145 0,-123.18499 47.8138,0.01 c 27.1199,0.007 48.494,0.13735 49.3854,0.30312 4.672,0.86868 8.683,4.0213 12.3615,9.71604 5.8309,9.02685 9.3578,21.37396 10.0352,35.13237 0.1218,2.4746 0.1569,14.62496 0.1148,39.82065 -0.067,39.61602 -0.028,37.90242 -0.9979,44.24148 -1.2146,7.93396 -3.1571,14.36771 -6.3184,20.92709 -3.2415,6.72567 -7.0695,11.2875 -11.345,13.51978 -2.7812,1.45214 -1.9726,1.41842 -39.5632,1.64984 l -35.7132,0.21984 0,40.41442 0,40.41445 -12.8864,0 -12.8866,0 0,-123.18518 z m 93.6632,-40.79187 0,-29.29895 -33.945,0 -33.9452,0 0,29.29895 0,29.29891 33.9452,0 33.945,0 z"
       style="fill:#460000;fill-opacity:1;stroke-width:0.22556056" />
  </g>
  <g
     transform="translate(-192.01517,-7.9825421)"
     style="display:none"
     id="layer7">
    <path
       id="rect4599"
       d="m -1222.3539,376.03568 0,111.18427 0,61.74503 0,66.04702 42.9122,0.0941 0,-66.14107 130.6575,0 0,-172.9293 z m 42.8041,42.48396 87.9634,0 0,87.96138 -87.8553,0 0,-19.26107 -0.1081,0 z"
       style="fill:#eae05a;fill-opacity:0.51820733;stroke:#00af00;stroke-width:0;stroke-miterlimit:4;stroke-dasharray:none;stroke-opacity:1" />
  </g>
</svg>
