<?xml version="1.0" encoding="UTF-8" standalone="no"?>
<svg
   xmlns:dc="http://purl.org/dc/elements/1.1/"
   xmlns:cc="http://creativecommons.org/ns#"
   xmlns:rdf="http://www.w3.org/1999/02/22-rdf-syntax-ns#"
   xmlns:svg="http://www.w3.org/2000/svg"
   xmlns="http://www.w3.org/2000/svg"
   viewBox="0 0 97.333336 98.666664"
   height="98.666664"
   width="97.333336"
   id="svg64"
   version="1.1">
  <metadata
     id="metadata70">
    <rdf:RDF>
      <cc:Work
         rdf:about="">
        <dc:format>image/svg+xml</dc:format>
        <dc:type
           rdf:resource="http://purl.org/dc/dcmitype/StillImage" />
        <dc:title></dc:title>
      </cc:Work>
    </rdf:RDF>
  </metadata>
  <defs
     id="defs68" />
  <path
     id="path74"
     d="m 2.1782156,89.043926 c 0,-10.452756 0.0609,-14.642885 4.713064,-18.727587 C 10.242265,67.374135 12.941442,66.951531 16.269723,66.178217 17.806865,65.821067 21,65.983938 21,65.983938 V 95.666664 L 2.1782156,95.633389 Z M 37,76.666664 h 40 v -28 l 4.178221,0.894868 c 5.523024,1.18289 12.643496,5.797297 13.573415,9.257712 1.645343,6.122646 0.734319,23.676572 -1.469844,28.321503 C 89.792898,94.493044 87,95.762144 71.486806,95.73252 59.991204,95.710568 37,95.666664 37,95.666664 Z m 0,-39 h 24 v 23 H 37 Z M 17.338285,47.948761 C 5.4625146,45.335563 2.1782156,41.658691 2.1782156,23.715887 V 10.454463 C 4.7483082,4.1781424 5.8526516,3.3064197 11.604342,2.1782178 H 53.557948 95.511554 V 6.911097 c 0.06358,11.677315 0.07402,24.156572 -13.868172,24.600454 -2.378375,0 -4.798495,-0.804719 -4.798495,-5.360384 L 77,21.666664 H 21 v 27 c -0.524345,-0.08507 -2.195048,-0.395171 -3.661715,-0.717903 z"
     style="fill:#000000;stroke-width:1.33333337" />
</svg>
